<svg width="21" height="20" viewBox="0 0 21 20" fill="none" xmlns="http://www.w3.org/2000/svg">
<rect width="21" height="20" fill="#F5F5F5"/>
<g id="Student-Dashboard-1">
<rect width="1440" height="1024" transform="translate(-311 -299)" fill="white"/>
<g id="Frame 29">
<g id="Frame 13">
<g id="Group 26">
<g id="Rectangle 10" filter="url(#filter0_bd_0_1)">
<rect x="-117" y="-154" width="320" height="200" rx="8" fill="white"/>
<rect x="-116.5" y="-153.5" width="319" height="199" rx="7.5" stroke="#355070"/>
</g>
<g id="Group 25">
<g id="Frame 23">
<path id="Vector" d="M10.5508 4.70588H2.34572C1.80168 4.70588 1.27993 4.95378 0.89524 5.39504C0.51055 5.83631 0.294434 6.43478 0.294434 7.05882V11.7647C0.294434 12.3887 0.51055 12.9872 0.89524 13.4285C1.27993 13.8697 1.80168 14.1176 2.34572 14.1176H3.37136V18.8235C3.37136 19.1355 3.47942 19.4348 3.67176 19.6554C3.86411 19.8761 4.12498 20 4.397 20H6.44828C6.7203 20 6.98117 19.8761 7.17352 19.6554C7.36586 19.4348 7.47392 19.1355 7.47392 18.8235V14.1176H10.5508L15.679 18.8235V0L10.5508 4.70588ZM13.6278 13.6471L11.5765 11.7647H2.34572V7.05882H11.5765L13.6278 5.17647V13.6471ZM20.2944 9.41177C20.2944 11.4235 19.3098 13.2471 17.7303 14.1176V4.70588C19.2996 5.58824 20.2944 7.41176 20.2944 9.41177Z" fill="#545454"/>
</g>
</g>
</g>
</g>
</g>
</g>
<defs>
<filter id="filter0_bd_0_1" x="-131" y="-168" width="348" height="228" filterUnits="userSpaceOnUse" color-interpolation-filters="sRGB">
<feFlood flood-opacity="0" result="BackgroundImageFix"/>
<feGaussianBlur in="BackgroundImageFix" stdDeviation="7"/>
<feComposite in2="SourceAlpha" operator="in" result="effect1_backgroundBlur_0_1"/>
<feColorMatrix in="SourceAlpha" type="matrix" values="0 0 0 0 0 0 0 0 0 0 0 0 0 0 0 0 0 0 127 0" result="hardAlpha"/>
<feMorphology radius="1" operator="dilate" in="SourceAlpha" result="effect2_dropShadow_0_1"/>
<feOffset dy="4"/>
<feGaussianBlur stdDeviation="4"/>
<feComposite in2="hardAlpha" operator="out"/>
<feColorMatrix type="matrix" values="0 0 0 0 0.153755 0 0 0 0 0.260909 0 0 0 0 0.387907 0 0 0 0.16 0"/>
<feBlend mode="normal" in2="effect1_backgroundBlur_0_1" result="effect2_dropShadow_0_1"/>
<feBlend mode="normal" in="SourceGraphic" in2="effect2_dropShadow_0_1" result="shape"/>
</filter>
</defs>
</svg>
