<svg width="21" height="20" viewBox="0 0 21 20" fill="none" xmlns="http://www.w3.org/2000/svg">
<path d="M2.51666 20C1.90555 20 1.38221 19.804 0.946657 19.412C0.511102 19.02 0.293695 18.5493 0.294435 18V4C0.294435 3.45 0.512213 2.979 0.947769 2.587C1.38332 2.195 1.90629 1.99933 2.51666 2H7.18332C7.42406 1.4 7.82703 0.916667 8.39221 0.55C8.9574 0.183333 9.59147 0 10.2944 0C10.9981 0 11.6326 0.183333 12.1978 0.55C12.763 0.916667 13.1655 1.4 13.4055 2H18.0722C18.6833 2 19.2067 2.196 19.6422 2.588C20.0778 2.98 20.2952 3.45067 20.2944 4V18C20.2944 18.55 20.0767 19.021 19.6411 19.413C19.2055 19.805 18.6826 20.0007 18.0722 20H2.51666ZM2.51666 18H18.0722V4H2.51666V18ZM5.84999 16H11.4055C11.7204 16 11.9844 15.904 12.1978 15.712C12.4111 15.52 12.5174 15.2827 12.5167 15C12.5167 14.7167 12.41 14.479 12.1967 14.287C11.9833 14.095 11.7196 13.9993 11.4055 14H5.84999C5.53518 14 5.2711 14.096 5.05777 14.288C4.84444 14.48 4.73814 14.7173 4.73888 15C4.73888 15.2833 4.84555 15.521 5.05888 15.713C5.27221 15.905 5.53592 16.0007 5.84999 16ZM5.84999 12H14.7389C15.0537 12 15.3178 11.904 15.5311 11.712C15.7444 11.52 15.8507 11.2827 15.85 11C15.85 10.7167 15.7433 10.479 15.53 10.287C15.3167 10.095 15.053 9.99933 14.7389 10H5.84999C5.53518 10 5.2711 10.096 5.05777 10.288C4.84444 10.48 4.73814 10.7173 4.73888 11C4.73888 11.2833 4.84555 11.521 5.05888 11.713C5.27221 11.905 5.53592 12.0007 5.84999 12ZM5.84999 8H14.7389C15.0537 8 15.3178 7.904 15.5311 7.712C15.7444 7.52 15.8507 7.28267 15.85 7C15.85 6.71667 15.7433 6.479 15.53 6.287C15.3167 6.095 15.053 5.99933 14.7389 6H5.84999C5.53518 6 5.2711 6.096 5.05777 6.288C4.84444 6.48 4.73814 6.71733 4.73888 7C4.73888 7.28333 4.84555 7.521 5.05888 7.713C5.27221 7.905 5.53592 8.00067 5.84999 8ZM10.2944 3.25C10.5352 3.25 10.7341 3.179 10.8911 3.037C11.0481 2.895 11.127 2.716 11.1278 2.5C11.1278 2.28333 11.0489 2.10433 10.8911 1.963C10.7333 1.82167 10.5344 1.75067 10.2944 1.75C10.0537 1.75 9.8548 1.821 9.69777 1.963C9.54073 2.105 9.46184 2.284 9.4611 2.5C9.4611 2.71667 9.53999 2.89567 9.69777 3.037C9.85555 3.17833 10.0544 3.24933 10.2944 3.25Z" fill="#545454"/>
</svg>
