<svg width="21" height="20" viewBox="0 0 21 20" fill="none" xmlns="http://www.w3.org/2000/svg">
<path d="M4.18332 12.2972H11.9611V11.1261H4.18332V12.2972ZM4.18332 8.78374H16.4055V7.61258H4.18332V8.78374ZM4.18332 5.27025H16.4055V4.09908H4.18332V5.27025ZM0.294434 20V1.89143C0.294434 1.3527 0.465915 0.902969 0.808878 0.54225C1.1511 0.18075 1.57777 0 2.08888 0H18.5C19.0111 0 19.4378 0.18075 19.78 0.54225C20.123 0.902969 20.2944 1.3527 20.2944 1.89143V14.5049C20.2944 15.0436 20.1233 15.4937 19.7811 15.8552C19.4381 16.216 19.0111 16.3963 18.5 16.3963H3.71332L0.294434 20ZM3.23888 15.2252H18.5C18.6704 15.2252 18.827 15.1502 18.97 15.0003C19.1122 14.8496 19.1833 14.6845 19.1833 14.5049V1.89143C19.1833 1.71185 19.1122 1.54672 18.97 1.39603C18.827 1.24612 18.6704 1.17117 18.5 1.17117H2.08888C1.91851 1.17117 1.76184 1.24612 1.61888 1.39603C1.47666 1.54672 1.40554 1.71185 1.40554 1.89143V17.1517L3.23888 15.2252Z" fill="#545454"/>
</svg>
