<svg width="21" height="20" viewBox="0 0 21 20" fill="none" xmlns="http://www.w3.org/2000/svg">
<path fill-rule="evenodd" clip-rule="evenodd" d="M5.51304 5.27401e-07H5.63118C5.95769 5.27401e-07 6.16792 5.09412e-07 6.3735 0.0186052C7.21182 0.0970057 8.01029 0.413295 8.6749 0.930233H14.5344C14.9149 0.930233 15.1735 0.930233 15.4005 0.960001C16.1932 1.06463 16.9259 1.4384 17.4759 2.01874C18.0259 2.59907 18.3599 3.35074 18.4219 4.14791C18.6833 4.26613 18.9249 4.42396 19.1382 4.61581C19.2312 4.69767 19.3177 4.78512 19.3996 4.87628C19.8916 5.42326 20.1009 6.08837 20.1996 6.8707C20.2944 7.62605 20.2944 8.58047 20.2944 9.76465V11.9135C20.2944 13.6223 20.2944 14.9767 20.1521 16.0363C20.0051 17.1265 19.6963 18.0093 19.0005 18.706C18.3037 19.4019 17.4209 19.7107 16.3307 19.8577C15.2702 20 13.9168 20 12.207 20H8.38188C6.67211 20 5.31769 20 4.25815 19.8577C3.16792 19.7107 2.28513 19.4019 1.58839 18.706C0.892573 18.0093 0.583736 17.1265 0.436759 16.0363C0.294434 14.9758 0.294434 13.6223 0.294434 11.9126V5.21861C0.294434 4.47721 0.294434 4.00651 0.370713 3.6C0.535217 2.72616 0.959536 1.92228 1.5882 1.29345C2.21687 0.664616 3.02064 0.240084 3.89443 0.0753493C4.30188 -0.000929741 4.77257 5.27401e-07 5.51304 5.27401e-07ZM16.9428 3.79349C16.8237 3.41257 16.5981 3.07365 16.2927 2.8167C15.9873 2.55975 15.6148 2.39548 15.2191 2.34326C15.0944 2.32744 14.9344 2.32558 14.4805 2.32558H10.1186C10.7168 2.92093 10.9884 3.16837 11.2963 3.33954C11.4991 3.45209 11.714 3.5414 11.9372 3.60558C12.3214 3.71442 12.7428 3.72093 13.8554 3.72093H14.2507C15.3316 3.72093 16.2219 3.72093 16.9428 3.79349ZM5.59676 1.39535C4.74374 1.39535 4.41443 1.39814 4.15211 1.44744C3.55474 1.56037 3.00529 1.85077 2.57549 2.28074C2.14569 2.7107 1.8555 3.26026 1.74281 3.85768C1.69257 4.12 1.68978 4.4493 1.68978 5.30233V11.8605C1.68978 13.6344 1.69164 14.8949 1.82002 15.8512C1.9456 16.786 2.18188 17.3256 2.57536 17.7191C2.96885 18.1126 3.50839 18.3488 4.4442 18.4744C5.40048 18.6028 6.66002 18.6047 8.43397 18.6047H12.1549C13.9289 18.6047 15.1893 18.6028 16.1456 18.4744C17.0805 18.3488 17.62 18.1126 18.0135 17.7191C18.407 17.3256 18.6433 16.786 18.7689 15.8502C18.8972 14.8949 18.8991 13.6344 18.8991 11.8605V9.81209C18.8991 8.5693 18.8982 7.70233 18.8154 7.04465C18.7344 6.40372 18.5865 6.05861 18.3623 5.8093C18.3131 5.75448 18.2609 5.70231 18.2061 5.65302C17.9568 5.42884 17.6107 5.28093 16.9707 5.2C16.313 5.11721 15.4461 5.11628 14.2033 5.11628H13.753C12.7782 5.11628 12.1493 5.11628 11.5549 4.94698C11.2293 4.85395 10.914 4.72372 10.6172 4.55907C10.0777 4.25768 9.63304 3.81395 8.94281 3.12372L8.87118 3.05116L8.35955 2.53954C8.21014 2.38338 8.05402 2.23378 7.89164 2.09116C7.42364 1.7031 6.84951 1.46514 6.2442 1.40837C6.02868 1.39467 5.81266 1.39033 5.59676 1.39535ZM10.527 8.13954C10.527 7.9545 10.6005 7.77705 10.7313 7.64621C10.8622 7.51537 11.0396 7.44186 11.2247 7.44186H15.8758C16.0609 7.44186 16.2383 7.51537 16.3692 7.64621C16.5 7.77705 16.5735 7.9545 16.5735 8.13954C16.5735 8.32457 16.5 8.50203 16.3692 8.63287C16.2383 8.76371 16.0609 8.83721 15.8758 8.83721H11.2247C11.0396 8.83721 10.8622 8.76371 10.7313 8.63287C10.6005 8.50203 10.527 8.32457 10.527 8.13954Z" fill="#545454"/>
</svg>
